<svg xmlns="http://www.w3.org/2000/svg" viewBox="0 0 1280 720" width="1280" height="720" role="img" aria-label="NeuroTrailblazers network motif">
  <title>NeuroTrailblazers network motif</title>
  <rect width="1280" height="720" fill="#10303f"/>
  <g fill="none" stroke="#0f6b73" stroke-opacity="0.75" stroke-linecap="round"><path d="M120 110 Q 360 353 664 377" stroke-width="5.5"/><path d="M50 330 Q 368 441 658 388" stroke-width="5.5"/><path d="M130 580 Q 394 419 664 385" stroke-width="5.5"/><path d="M360 670 Q 595 601 684 413" stroke-width="5.5"/><path d="M430 80 Q 608 192 684 347" stroke-width="5.5"/><path d="M560 620 Q 683 531 696 416" stroke-width="5.5"/><path d="M290 300 Q 514 244 671 358" stroke-width="5.5"/><path d="M700 380 Q 919 400 998 226" stroke-width="7"/><path d="M700 380 Q 949 378 1103 542" stroke-width="7"/><path d="M880 640 Q 983 548 1096 558" stroke-width="5.5"/><path d="M830 60 Q 994 35 1007 172" stroke-width="5.5"/><path d="M1010 200 Q 1073 33 1233 57" stroke-width="7"/><path d="M1010 200 Q 1126 343 1292 331" stroke-width="7"/><path d="M1120 560 Q 1264 551 1296 673" stroke-width="7"/></g>
  <circle cx="700" cy="380" r="28" fill="#0f6b73"/><circle cx="1010" cy="200" r="20" fill="#0f6b73"/><circle cx="1120" cy="560" r="16" fill="#0f6b73"/><circle cx="120" cy="110" r="12" fill="#0f6b73"/><circle cx="50" cy="330" r="10" fill="#0f6b73"/><circle cx="130" cy="580" r="12" fill="#0f6b73"/><circle cx="360" cy="670" r="10" fill="#0f6b73"/><circle cx="430" cy="80" r="10" fill="#0f6b73"/><circle cx="560" cy="620" r="11" fill="#0f6b73"/><circle cx="880" cy="640" r="11" fill="#0f6b73"/><circle cx="1250" cy="60" r="9" fill="#0f6b73"/><circle cx="1310" cy="330" r="10" fill="#0f6b73"/><circle cx="290" cy="300" r="9" fill="#0f6b73"/><circle cx="1300" cy="690" r="9" fill="#0f6b73"/><circle cx="830" cy="60" r="9" fill="#0f6b73"/>
  <circle cx="664" cy="377" r="6.5" fill="#0f6b73"/><circle cx="658" cy="388" r="13" fill="#e8820c" stroke="#10303f" stroke-width="3"/><circle cx="664" cy="385" r="6.5" fill="#0f6b73"/><circle cx="684" cy="413" r="6.5" fill="#0f6b73"/><circle cx="684" cy="347" r="6.5" fill="#0f6b73"/><circle cx="696" cy="416" r="6.5" fill="#0f6b73"/><circle cx="671" cy="358" r="6.5" fill="#0f6b73"/><circle cx="998" cy="226" r="6.5" fill="#0f6b73"/><circle cx="1103" cy="542" r="6.5" fill="#0f6b73"/><circle cx="1096" cy="558" r="6.5" fill="#0f6b73"/><circle cx="1007" cy="172" r="6.5" fill="#0f6b73"/><circle cx="1233" cy="57" r="6.5" fill="#0f6b73"/><circle cx="1292" cy="331" r="6.5" fill="#0f6b73"/><circle cx="1296" cy="673" r="6.5" fill="#0f6b73"/>
</svg>
