<svg xmlns="http://www.w3.org/2000/svg" viewBox="0 0 1200 420" role="img" aria-label="Module 22: Scientific Writing &amp; Presentation">
<title>Module 22: Scientific Writing &amp; Presentation</title>
<defs>
  <linearGradient id="ground" x1="0" y1="0" x2="1" y2="1">
    <stop offset="0" stop-color="#0f172a"/>
    <stop offset="1" stop-color="#111c33"/>
  </linearGradient>
  <radialGradient id="mist" cx="0.5" cy="0.5" r="0.5">
    <stop offset="0" stop-color="#7c3aed" stop-opacity="0.22"/>
    <stop offset="1" stop-color="#7c3aed" stop-opacity="0"/>
  </radialGradient>
  <radialGradient id="mist2" cx="0.5" cy="0.5" r="0.5">
    <stop offset="0" stop-color="#06b6d4" stop-opacity="0.14"/>
    <stop offset="1" stop-color="#06b6d4" stop-opacity="0"/>
  </radialGradient>
</defs>

<rect x="0" y="0" width="1200" height="420" rx="0" fill="url(#ground)" stroke="none" stroke-width="0"/>
<circle cx="997" cy="150" r="275" fill="url(#mist)"/>
<circle cx="953" cy="19" r="287" fill="url(#mist)"/>
<circle cx="995" cy="300" r="248" fill="url(#mist)"/>
<circle cx="212" cy="79" r="210" fill="url(#mist2)"/>
<circle cx="468" cy="245" r="151" fill="url(#mist2)"/>
<line x1="313" y1="185" x2="265" y2="13" stroke="#e2e8f0" stroke-width="1" stroke-linecap="round" opacity="0.07"/>
<line x1="313" y1="185" x2="180" y2="78" stroke="#e2e8f0" stroke-width="1" stroke-linecap="round" opacity="0.07"/>
<line x1="313" y1="185" x2="125" y2="180" stroke="#e2e8f0" stroke-width="1" stroke-linecap="round" opacity="0.07"/>
<line x1="313" y1="185" x2="513" y2="305" stroke="#e2e8f0" stroke-width="1" stroke-linecap="round" opacity="0.07"/>
<line x1="265" y1="13" x2="180" y2="78" stroke="#e2e8f0" stroke-width="1" stroke-linecap="round" opacity="0.07"/>
<line x1="265" y1="13" x2="125" y2="180" stroke="#e2e8f0" stroke-width="1" stroke-linecap="round" opacity="0.07"/>
<line x1="539" y1="371" x2="581" y2="142" stroke="#e2e8f0" stroke-width="1" stroke-linecap="round" opacity="0.07"/>
<line x1="539" y1="371" x2="691" y2="293" stroke="#e2e8f0" stroke-width="1" stroke-linecap="round" opacity="0.07"/>
<line x1="539" y1="371" x2="513" y2="305" stroke="#e2e8f0" stroke-width="1" stroke-linecap="round" opacity="0.07"/>
<line x1="837" y1="146" x2="581" y2="142" stroke="#e2e8f0" stroke-width="1" stroke-linecap="round" opacity="0.07"/>
<line x1="837" y1="146" x2="649" y2="80" stroke="#e2e8f0" stroke-width="1" stroke-linecap="round" opacity="0.07"/>
<line x1="837" y1="146" x2="691" y2="293" stroke="#e2e8f0" stroke-width="1" stroke-linecap="round" opacity="0.07"/>
<line x1="837" y1="146" x2="916" y2="346" stroke="#e2e8f0" stroke-width="1" stroke-linecap="round" opacity="0.07"/>
<line x1="837" y1="146" x2="978" y2="190" stroke="#e2e8f0" stroke-width="1" stroke-linecap="round" opacity="0.07"/>
<line x1="837" y1="146" x2="1000" y2="312" stroke="#e2e8f0" stroke-width="1" stroke-linecap="round" opacity="0.07"/>
<line x1="1135" y1="31" x2="1178" y2="67" stroke="#e2e8f0" stroke-width="1" stroke-linecap="round" opacity="0.07"/>
<line x1="1135" y1="31" x2="978" y2="190" stroke="#e2e8f0" stroke-width="1" stroke-linecap="round" opacity="0.07"/>
<line x1="581" y1="142" x2="649" y2="80" stroke="#e2e8f0" stroke-width="1" stroke-linecap="round" opacity="0.07"/>
<line x1="581" y1="142" x2="691" y2="293" stroke="#e2e8f0" stroke-width="1" stroke-linecap="round" opacity="0.07"/>
<line x1="581" y1="142" x2="513" y2="305" stroke="#e2e8f0" stroke-width="1" stroke-linecap="round" opacity="0.07"/>
<line x1="649" y1="80" x2="691" y2="293" stroke="#e2e8f0" stroke-width="1" stroke-linecap="round" opacity="0.07"/>
<line x1="691" y1="293" x2="916" y2="346" stroke="#e2e8f0" stroke-width="1" stroke-linecap="round" opacity="0.07"/>
<line x1="691" y1="293" x2="513" y2="305" stroke="#e2e8f0" stroke-width="1" stroke-linecap="round" opacity="0.07"/>
<line x1="180" y1="78" x2="125" y2="180" stroke="#e2e8f0" stroke-width="1" stroke-linecap="round" opacity="0.07"/>
<line x1="1178" y1="67" x2="978" y2="190" stroke="#e2e8f0" stroke-width="1" stroke-linecap="round" opacity="0.07"/>
<line x1="916" y1="346" x2="978" y2="190" stroke="#e2e8f0" stroke-width="1" stroke-linecap="round" opacity="0.07"/>
<line x1="916" y1="346" x2="1000" y2="312" stroke="#e2e8f0" stroke-width="1" stroke-linecap="round" opacity="0.07"/>
<line x1="916" y1="346" x2="989" y2="395" stroke="#e2e8f0" stroke-width="1" stroke-linecap="round" opacity="0.07"/>
<line x1="978" y1="190" x2="1000" y2="312" stroke="#e2e8f0" stroke-width="1" stroke-linecap="round" opacity="0.07"/>
<line x1="978" y1="190" x2="989" y2="395" stroke="#e2e8f0" stroke-width="1" stroke-linecap="round" opacity="0.07"/>
<line x1="1000" y1="312" x2="989" y2="395" stroke="#e2e8f0" stroke-width="1" stroke-linecap="round" opacity="0.07"/>
<circle cx="313" cy="185" r="2.34" fill="#7c3aed" stroke="none" stroke-width="0" opacity="0.28"/>
<circle cx="265" cy="13" r="3.65" fill="#7c3aed" stroke="none" stroke-width="0" opacity="0.28"/>
<circle cx="539" cy="371" r="3.07" fill="#7c3aed" stroke="none" stroke-width="0" opacity="0.28"/>
<circle cx="837" cy="146" r="3.73" fill="#7c3aed" stroke="none" stroke-width="0" opacity="0.28"/>
<circle cx="1135" cy="31" r="3.51" fill="#7c3aed" stroke="none" stroke-width="0" opacity="0.28"/>
<circle cx="581" cy="142" r="3.3" fill="#7c3aed" stroke="none" stroke-width="0" opacity="0.28"/>
<circle cx="649" cy="80" r="3.36" fill="#7c3aed" stroke="none" stroke-width="0" opacity="0.28"/>
<circle cx="691" cy="293" r="3.37" fill="#7c3aed" stroke="none" stroke-width="0" opacity="0.28"/>
<circle cx="180" cy="78" r="3.06" fill="#7c3aed" stroke="none" stroke-width="0" opacity="0.28"/>
<circle cx="1178" cy="67" r="2.76" fill="#7c3aed" stroke="none" stroke-width="0" opacity="0.28"/>
<circle cx="125" cy="180" r="2.72" fill="#7c3aed" stroke="none" stroke-width="0" opacity="0.28"/>
<circle cx="916" cy="346" r="2.31" fill="#7c3aed" stroke="none" stroke-width="0" opacity="0.28"/>
<circle cx="978" cy="190" r="2.33" fill="#7c3aed" stroke="none" stroke-width="0" opacity="0.28"/>
<circle cx="1000" cy="312" r="2.85" fill="#7c3aed" stroke="none" stroke-width="0" opacity="0.28"/>
<circle cx="989" cy="395" r="2.67" fill="#7c3aed" stroke="none" stroke-width="0" opacity="0.28"/>
<circle cx="513" cy="305" r="3.16" fill="#7c3aed" stroke="none" stroke-width="0" opacity="0.28"/>
<circle cx="380.0" cy="210.0" r="16" fill="#7c3aed" stroke="none" stroke-width="0"/>
<path d="M 415.0 149.1 A 70 70 0 0 1 415.0 270.9" fill="none" stroke="#7c3aed" stroke-width="3.5" stroke-linecap="round" stroke-linejoin="round" opacity="0.9"/>
<path d="M 446.0 95.16 A 132 132 0 0 1 446.0 324.84000000000003" fill="none" stroke="#7c3aed" stroke-width="2.8" stroke-linecap="round" stroke-linejoin="round" opacity="0.68"/>
<path d="M 477.0 41.22 A 194 194 0 0 1 477.0 378.78" fill="none" stroke="#7c3aed" stroke-width="2.1" stroke-linecap="round" stroke-linejoin="round" opacity="0.46"/>
<circle cx="690.0" cy="120.0" r="10" fill="none" stroke="#e2e8f0" stroke-width="3" opacity="0.85"/>
<circle cx="690.0" cy="120.0" r="10" fill="#06b6d4" stroke="none" stroke-width="0" opacity="0.25"/>
<circle cx="760.0" cy="190.0" r="10" fill="none" stroke="#e2e8f0" stroke-width="3" opacity="0.85"/>
<circle cx="760.0" cy="190.0" r="10" fill="#06b6d4" stroke="none" stroke-width="0" opacity="0.25"/>
<circle cx="710.0" cy="280.0" r="10" fill="none" stroke="#e2e8f0" stroke-width="3" opacity="0.85"/>
<circle cx="710.0" cy="280.0" r="10" fill="#06b6d4" stroke="none" stroke-width="0" opacity="0.25"/>
<circle cx="830.0" cy="256.0" r="10" fill="none" stroke="#e2e8f0" stroke-width="3" opacity="0.85"/>
<circle cx="830.0" cy="256.0" r="10" fill="#06b6d4" stroke="none" stroke-width="0" opacity="0.25"/>
<circle cx="840.0" cy="132.0" r="10" fill="none" stroke="#e2e8f0" stroke-width="3" opacity="0.85"/>
<circle cx="840.0" cy="132.0" r="10" fill="#06b6d4" stroke="none" stroke-width="0" opacity="0.25"/>
<line x1="690.0" y1="120.0" x2="760.0" y2="190.0" stroke="#e2e8f0" stroke-width="1.6" stroke-linecap="round" opacity="0.3"/>
<line x1="760.0" y1="190.0" x2="710.0" y2="280.0" stroke="#e2e8f0" stroke-width="1.6" stroke-linecap="round" opacity="0.3"/>
<line x1="710.0" y1="280.0" x2="830.0" y2="256.0" stroke="#e2e8f0" stroke-width="1.6" stroke-linecap="round" opacity="0.3"/>
<line x1="830.0" y1="256.0" x2="840.0" y2="132.0" stroke="#e2e8f0" stroke-width="1.6" stroke-linecap="round" opacity="0.3"/>
</svg>
