<svg xmlns="http://www.w3.org/2000/svg" viewBox="0 0 1200 420" role="img" aria-label="Module 25: Portfolio, Feedback, and Final Project">
<title>Module 25: Portfolio, Feedback, and Final Project</title>
<defs>
  <linearGradient id="ground" x1="0" y1="0" x2="1" y2="1">
    <stop offset="0" stop-color="#0f172a"/>
    <stop offset="1" stop-color="#111c33"/>
  </linearGradient>
  <radialGradient id="mist" cx="0.5" cy="0.5" r="0.5">
    <stop offset="0" stop-color="#7c3aed" stop-opacity="0.22"/>
    <stop offset="1" stop-color="#7c3aed" stop-opacity="0"/>
  </radialGradient>
  <radialGradient id="mist2" cx="0.5" cy="0.5" r="0.5">
    <stop offset="0" stop-color="#06b6d4" stop-opacity="0.14"/>
    <stop offset="1" stop-color="#06b6d4" stop-opacity="0"/>
  </radialGradient>
</defs>

<rect x="0" y="0" width="1200" height="420" rx="0" fill="url(#ground)" stroke="none" stroke-width="0"/>
<circle cx="695" cy="306" r="226" fill="url(#mist)"/>
<circle cx="1103" cy="53" r="199" fill="url(#mist)"/>
<circle cx="349" cy="330" r="266" fill="url(#mist)"/>
<circle cx="351" cy="151" r="277" fill="url(#mist2)"/>
<circle cx="1091" cy="284" r="142" fill="url(#mist2)"/>
<line x1="843" y1="12" x2="792" y2="28" stroke="#e2e8f0" stroke-width="1" stroke-linecap="round" opacity="0.07"/>
<line x1="843" y1="12" x2="899" y2="16" stroke="#e2e8f0" stroke-width="1" stroke-linecap="round" opacity="0.07"/>
<line x1="843" y1="12" x2="820" y2="8" stroke="#e2e8f0" stroke-width="1" stroke-linecap="round" opacity="0.07"/>
<line x1="843" y1="12" x2="909" y2="125" stroke="#e2e8f0" stroke-width="1" stroke-linecap="round" opacity="0.07"/>
<line x1="1186" y1="151" x2="1005" y2="253" stroke="#e2e8f0" stroke-width="1" stroke-linecap="round" opacity="0.07"/>
<line x1="1186" y1="151" x2="1169" y2="398" stroke="#e2e8f0" stroke-width="1" stroke-linecap="round" opacity="0.07"/>
<line x1="166" y1="269" x2="32" y2="283" stroke="#e2e8f0" stroke-width="1" stroke-linecap="round" opacity="0.07"/>
<line x1="166" y1="269" x2="166" y2="95" stroke="#e2e8f0" stroke-width="1" stroke-linecap="round" opacity="0.07"/>
<line x1="166" y1="269" x2="394" y2="195" stroke="#e2e8f0" stroke-width="1" stroke-linecap="round" opacity="0.07"/>
<line x1="166" y1="269" x2="147" y2="60" stroke="#e2e8f0" stroke-width="1" stroke-linecap="round" opacity="0.07"/>
<line x1="321" y1="22" x2="166" y2="95" stroke="#e2e8f0" stroke-width="1" stroke-linecap="round" opacity="0.07"/>
<line x1="321" y1="22" x2="394" y2="195" stroke="#e2e8f0" stroke-width="1" stroke-linecap="round" opacity="0.07"/>
<line x1="321" y1="22" x2="460" y2="84" stroke="#e2e8f0" stroke-width="1" stroke-linecap="round" opacity="0.07"/>
<line x1="321" y1="22" x2="147" y2="60" stroke="#e2e8f0" stroke-width="1" stroke-linecap="round" opacity="0.07"/>
<line x1="1005" y1="253" x2="1169" y2="398" stroke="#e2e8f0" stroke-width="1" stroke-linecap="round" opacity="0.07"/>
<line x1="1005" y1="253" x2="899" y2="16" stroke="#e2e8f0" stroke-width="1" stroke-linecap="round" opacity="0.07"/>
<line x1="1005" y1="253" x2="909" y2="125" stroke="#e2e8f0" stroke-width="1" stroke-linecap="round" opacity="0.07"/>
<line x1="792" y1="28" x2="899" y2="16" stroke="#e2e8f0" stroke-width="1" stroke-linecap="round" opacity="0.07"/>
<line x1="792" y1="28" x2="820" y2="8" stroke="#e2e8f0" stroke-width="1" stroke-linecap="round" opacity="0.07"/>
<line x1="792" y1="28" x2="909" y2="125" stroke="#e2e8f0" stroke-width="1" stroke-linecap="round" opacity="0.07"/>
<line x1="32" y1="283" x2="166" y2="95" stroke="#e2e8f0" stroke-width="1" stroke-linecap="round" opacity="0.07"/>
<line x1="32" y1="283" x2="147" y2="60" stroke="#e2e8f0" stroke-width="1" stroke-linecap="round" opacity="0.07"/>
<line x1="602" y1="216" x2="394" y2="195" stroke="#e2e8f0" stroke-width="1" stroke-linecap="round" opacity="0.07"/>
<line x1="602" y1="216" x2="460" y2="84" stroke="#e2e8f0" stroke-width="1" stroke-linecap="round" opacity="0.07"/>
<line x1="166" y1="95" x2="394" y2="195" stroke="#e2e8f0" stroke-width="1" stroke-linecap="round" opacity="0.07"/>
<line x1="166" y1="95" x2="147" y2="60" stroke="#e2e8f0" stroke-width="1" stroke-linecap="round" opacity="0.07"/>
<line x1="394" y1="195" x2="460" y2="84" stroke="#e2e8f0" stroke-width="1" stroke-linecap="round" opacity="0.07"/>
<line x1="899" y1="16" x2="820" y2="8" stroke="#e2e8f0" stroke-width="1" stroke-linecap="round" opacity="0.07"/>
<line x1="899" y1="16" x2="909" y2="125" stroke="#e2e8f0" stroke-width="1" stroke-linecap="round" opacity="0.07"/>
<line x1="820" y1="8" x2="909" y2="125" stroke="#e2e8f0" stroke-width="1" stroke-linecap="round" opacity="0.07"/>
<circle cx="843" cy="12" r="3.0" fill="#7c3aed" stroke="none" stroke-width="0" opacity="0.28"/>
<circle cx="1186" cy="151" r="3.27" fill="#7c3aed" stroke="none" stroke-width="0" opacity="0.28"/>
<circle cx="166" cy="269" r="2.94" fill="#7c3aed" stroke="none" stroke-width="0" opacity="0.28"/>
<circle cx="321" cy="22" r="3.59" fill="#7c3aed" stroke="none" stroke-width="0" opacity="0.28"/>
<circle cx="1005" cy="253" r="3.77" fill="#7c3aed" stroke="none" stroke-width="0" opacity="0.28"/>
<circle cx="1169" cy="398" r="2.64" fill="#7c3aed" stroke="none" stroke-width="0" opacity="0.28"/>
<circle cx="792" cy="28" r="3.24" fill="#7c3aed" stroke="none" stroke-width="0" opacity="0.28"/>
<circle cx="32" cy="283" r="2.61" fill="#7c3aed" stroke="none" stroke-width="0" opacity="0.28"/>
<circle cx="602" cy="216" r="3.46" fill="#7c3aed" stroke="none" stroke-width="0" opacity="0.28"/>
<circle cx="166" cy="95" r="2.83" fill="#7c3aed" stroke="none" stroke-width="0" opacity="0.28"/>
<circle cx="394" cy="195" r="3.71" fill="#7c3aed" stroke="none" stroke-width="0" opacity="0.28"/>
<circle cx="899" cy="16" r="2.31" fill="#7c3aed" stroke="none" stroke-width="0" opacity="0.28"/>
<circle cx="820" cy="8" r="2.94" fill="#7c3aed" stroke="none" stroke-width="0" opacity="0.28"/>
<circle cx="460" cy="84" r="3.13" fill="#7c3aed" stroke="none" stroke-width="0" opacity="0.28"/>
<circle cx="147" cy="60" r="2.22" fill="#7c3aed" stroke="none" stroke-width="0" opacity="0.28"/>
<circle cx="909" cy="125" r="3.63" fill="#7c3aed" stroke="none" stroke-width="0" opacity="0.28"/>
<circle cx="600.0" cy="210.0" r="44" fill="none" stroke="#7c3aed" stroke-width="4" opacity="0.95"/>
<circle cx="600.0" cy="210.0" r="44" fill="#7c3aed" stroke="none" stroke-width="0" opacity="0.15"/>
<path d="M 586.0 210.0 l 10 12 l 20 -24" fill="none" stroke="#7c3aed" stroke-width="5" stroke-linecap="round" stroke-linejoin="round" opacity="0.95"/>
<line x1="649.68" y1="225.37" x2="743.3" y2="242.51" stroke="#e2e8f0" stroke-width="2" stroke-linecap="round" opacity="0.4" stroke-dasharray="3 7"/>
<rect x="748.41" y="231.42" width="28" height="34" rx="4" fill="none" stroke="#e2e8f0" stroke-width="2.5" opacity="0.85"/>
<line x1="624.26" y1="255.99" x2="669.98" y2="307.29" stroke="#e2e8f0" stroke-width="2" stroke-linecap="round" opacity="0.4" stroke-dasharray="3 7"/>
<circle cx="679.32" cy="324.98" r="13" fill="none" stroke="#06b6d4" stroke-width="2.5" opacity="0.85"/>
<line x1="584.63" y1="259.68" x2="555.67" y2="315.09" stroke="#e2e8f0" stroke-width="2" stroke-linecap="round" opacity="0.4" stroke-dasharray="3 7"/>
<rect x="533.76" y="322.19" width="32" height="24" rx="4" fill="none" stroke="#e2e8f0" stroke-width="2.5" opacity="0.85"/>
<path d="M 539.7615648675722 340.19374358632876 l 7 -9 l 6 4 l 7 -10" fill="none" stroke="#06b6d4" stroke-width="2" stroke-linecap="round" stroke-linejoin="round" opacity="0.9"/>
<line x1="554.01" y1="234.26" x2="467.33" y2="261.32" stroke="#e2e8f0" stroke-width="2" stroke-linecap="round" opacity="0.4" stroke-dasharray="3 7"/>
<polygon points="449.64,256.65 462.64,279.65 436.64,279.65" fill="none" stroke="#e2e8f0" stroke-width="2.5" opacity="0.85"/>
<line x1="550.32" y1="194.63" x2="456.7" y2="177.49" stroke="#e2e8f0" stroke-width="2" stroke-linecap="round" opacity="0.4" stroke-dasharray="3 7"/>
<rect x="423.59" y="154.58" width="28" height="34" rx="4" fill="none" stroke="#e2e8f0" stroke-width="2.5" opacity="0.85"/>
<line x1="575.74" y1="164.01" x2="530.02" y2="112.71" stroke="#e2e8f0" stroke-width="2" stroke-linecap="round" opacity="0.4" stroke-dasharray="3 7"/>
<circle cx="520.68" cy="95.02" r="13" fill="none" stroke="#06b6d4" stroke-width="2.5" opacity="0.85"/>
<line x1="615.37" y1="160.32" x2="644.33" y2="104.91" stroke="#e2e8f0" stroke-width="2" stroke-linecap="round" opacity="0.4" stroke-dasharray="3 7"/>
<rect x="634.24" y="73.81" width="32" height="24" rx="4" fill="none" stroke="#e2e8f0" stroke-width="2.5" opacity="0.85"/>
<path d="M 640.2384351324276 91.8062564136712 l 7 -9 l 6 4 l 7 -10" fill="none" stroke="#06b6d4" stroke-width="2" stroke-linecap="round" stroke-linejoin="round" opacity="0.9"/>
<line x1="645.99" y1="185.74" x2="732.67" y2="158.68" stroke="#e2e8f0" stroke-width="2" stroke-linecap="round" opacity="0.4" stroke-dasharray="3 7"/>
<polygon points="750.36,135.35 763.36,158.35 737.36,158.35" fill="none" stroke="#e2e8f0" stroke-width="2.5" opacity="0.85"/>
</svg>
