<svg xmlns="http://www.w3.org/2000/svg" viewBox="0 0 1200 420" role="img" aria-label="Organelle Cues for Compartment Identification">
<title>Organelle Cues for Compartment Identification</title>
<defs>
  <linearGradient id="ground" x1="0" y1="0" x2="1" y2="1">
    <stop offset="0" stop-color="#0f172a"/>
    <stop offset="1" stop-color="#111c33"/>
  </linearGradient>
  <radialGradient id="mist" cx="0.5" cy="0.5" r="0.5">
    <stop offset="0" stop-color="#4A90D9" stop-opacity="0.22"/>
    <stop offset="1" stop-color="#4A90D9" stop-opacity="0"/>
  </radialGradient>
  <radialGradient id="mist2" cx="0.5" cy="0.5" r="0.5">
    <stop offset="0" stop-color="#06b6d4" stop-opacity="0.14"/>
    <stop offset="1" stop-color="#06b6d4" stop-opacity="0"/>
  </radialGradient>
</defs>

<rect x="0" y="0" width="1200" height="420" rx="0" fill="url(#ground)" stroke="none" stroke-width="0"/>
<circle cx="153" cy="9" r="173" fill="url(#mist)"/>
<circle cx="442" cy="367" r="223" fill="url(#mist)"/>
<circle cx="776" cy="180" r="287" fill="url(#mist)"/>
<circle cx="488" cy="162" r="145" fill="url(#mist2)"/>
<circle cx="877" cy="233" r="167" fill="url(#mist2)"/>
<line x1="77" y1="398" x2="310" y2="288" stroke="#e2e8f0" stroke-width="1" stroke-linecap="round" opacity="0.07"/>
<line x1="77" y1="398" x2="88" y2="188" stroke="#e2e8f0" stroke-width="1" stroke-linecap="round" opacity="0.07"/>
<line x1="778" y1="401" x2="802" y2="366" stroke="#e2e8f0" stroke-width="1" stroke-linecap="round" opacity="0.07"/>
<line x1="778" y1="401" x2="945" y2="348" stroke="#e2e8f0" stroke-width="1" stroke-linecap="round" opacity="0.07"/>
<line x1="778" y1="401" x2="999" y2="322" stroke="#e2e8f0" stroke-width="1" stroke-linecap="round" opacity="0.07"/>
<line x1="778" y1="401" x2="585" y2="300" stroke="#e2e8f0" stroke-width="1" stroke-linecap="round" opacity="0.07"/>
<line x1="778" y1="401" x2="776" y2="226" stroke="#e2e8f0" stroke-width="1" stroke-linecap="round" opacity="0.07"/>
<line x1="1165" y1="369" x2="945" y2="348" stroke="#e2e8f0" stroke-width="1" stroke-linecap="round" opacity="0.07"/>
<line x1="1165" y1="369" x2="999" y2="322" stroke="#e2e8f0" stroke-width="1" stroke-linecap="round" opacity="0.07"/>
<line x1="1165" y1="369" x2="1196" y2="153" stroke="#e2e8f0" stroke-width="1" stroke-linecap="round" opacity="0.07"/>
<line x1="1165" y1="369" x2="1142" y2="283" stroke="#e2e8f0" stroke-width="1" stroke-linecap="round" opacity="0.07"/>
<line x1="802" y1="366" x2="945" y2="348" stroke="#e2e8f0" stroke-width="1" stroke-linecap="round" opacity="0.07"/>
<line x1="802" y1="366" x2="999" y2="322" stroke="#e2e8f0" stroke-width="1" stroke-linecap="round" opacity="0.07"/>
<line x1="802" y1="366" x2="585" y2="300" stroke="#e2e8f0" stroke-width="1" stroke-linecap="round" opacity="0.07"/>
<line x1="802" y1="366" x2="776" y2="226" stroke="#e2e8f0" stroke-width="1" stroke-linecap="round" opacity="0.07"/>
<line x1="390" y1="307" x2="310" y2="288" stroke="#e2e8f0" stroke-width="1" stroke-linecap="round" opacity="0.07"/>
<line x1="390" y1="307" x2="585" y2="300" stroke="#e2e8f0" stroke-width="1" stroke-linecap="round" opacity="0.07"/>
<line x1="310" y1="288" x2="88" y2="188" stroke="#e2e8f0" stroke-width="1" stroke-linecap="round" opacity="0.07"/>
<line x1="144" y1="29" x2="88" y2="188" stroke="#e2e8f0" stroke-width="1" stroke-linecap="round" opacity="0.07"/>
<line x1="144" y1="29" x2="56" y2="130" stroke="#e2e8f0" stroke-width="1" stroke-linecap="round" opacity="0.07"/>
<line x1="945" y1="348" x2="999" y2="322" stroke="#e2e8f0" stroke-width="1" stroke-linecap="round" opacity="0.07"/>
<line x1="945" y1="348" x2="776" y2="226" stroke="#e2e8f0" stroke-width="1" stroke-linecap="round" opacity="0.07"/>
<line x1="945" y1="348" x2="1142" y2="283" stroke="#e2e8f0" stroke-width="1" stroke-linecap="round" opacity="0.07"/>
<line x1="999" y1="322" x2="1196" y2="153" stroke="#e2e8f0" stroke-width="1" stroke-linecap="round" opacity="0.07"/>
<line x1="999" y1="322" x2="776" y2="226" stroke="#e2e8f0" stroke-width="1" stroke-linecap="round" opacity="0.07"/>
<line x1="999" y1="322" x2="1142" y2="283" stroke="#e2e8f0" stroke-width="1" stroke-linecap="round" opacity="0.07"/>
<line x1="88" y1="188" x2="56" y2="130" stroke="#e2e8f0" stroke-width="1" stroke-linecap="round" opacity="0.07"/>
<line x1="1196" y1="153" x2="1142" y2="283" stroke="#e2e8f0" stroke-width="1" stroke-linecap="round" opacity="0.07"/>
<line x1="585" y1="300" x2="776" y2="226" stroke="#e2e8f0" stroke-width="1" stroke-linecap="round" opacity="0.07"/>
<circle cx="523" cy="29" r="2.37" fill="#4A90D9" stroke="none" stroke-width="0" opacity="0.28"/>
<circle cx="77" cy="398" r="2.95" fill="#4A90D9" stroke="none" stroke-width="0" opacity="0.28"/>
<circle cx="778" cy="401" r="2.24" fill="#4A90D9" stroke="none" stroke-width="0" opacity="0.28"/>
<circle cx="1165" cy="369" r="3.75" fill="#4A90D9" stroke="none" stroke-width="0" opacity="0.28"/>
<circle cx="802" cy="366" r="3.65" fill="#4A90D9" stroke="none" stroke-width="0" opacity="0.28"/>
<circle cx="390" cy="307" r="2.88" fill="#4A90D9" stroke="none" stroke-width="0" opacity="0.28"/>
<circle cx="310" cy="288" r="3.61" fill="#4A90D9" stroke="none" stroke-width="0" opacity="0.28"/>
<circle cx="144" cy="29" r="3.17" fill="#4A90D9" stroke="none" stroke-width="0" opacity="0.28"/>
<circle cx="945" cy="348" r="2.98" fill="#4A90D9" stroke="none" stroke-width="0" opacity="0.28"/>
<circle cx="999" cy="322" r="3.47" fill="#4A90D9" stroke="none" stroke-width="0" opacity="0.28"/>
<circle cx="88" cy="188" r="2.62" fill="#4A90D9" stroke="none" stroke-width="0" opacity="0.28"/>
<circle cx="1196" cy="153" r="3.32" fill="#4A90D9" stroke="none" stroke-width="0" opacity="0.28"/>
<circle cx="585" cy="300" r="2.62" fill="#4A90D9" stroke="none" stroke-width="0" opacity="0.28"/>
<circle cx="776" cy="226" r="3.67" fill="#4A90D9" stroke="none" stroke-width="0" opacity="0.28"/>
<circle cx="1142" cy="283" r="2.23" fill="#4A90D9" stroke="none" stroke-width="0" opacity="0.28"/>
<circle cx="56" cy="130" r="2.72" fill="#4A90D9" stroke="none" stroke-width="0" opacity="0.28"/>
<path d="M 300.0 74.0 C 500.0 30.0, 780.0 70.0, 890.0 190.0
            C 930.0 280.0, 700.0 370.0, 490.0 340.0
            C 320.0 320.0, 250.0 190.0, 300.0 110.0" fill="none" stroke="#4A90D9" stroke-width="4" stroke-linecap="round" stroke-linejoin="round" opacity="0.9"/>
<ellipse cx="420.0" cy="211.0" rx="47" ry="26" fill="none" stroke="#06b6d4" stroke-width="2.6" opacity="0.85" transform="rotate(178 420.0 211.0)"/>
<ellipse cx="632.0" cy="258.0" rx="31" ry="17" fill="none" stroke="#06b6d4" stroke-width="2.6" opacity="0.85" transform="rotate(284 632.0 258.0)"/>
<ellipse cx="575.0" cy="277.0" rx="39" ry="21" fill="none" stroke="#06b6d4" stroke-width="2.6" opacity="0.85" transform="rotate(332 575.0 277.0)"/>
<circle cx="445.0" cy="254.0" r="8.59" fill="none" stroke="#e2e8f0" stroke-width="2" opacity="0.7"/>
<circle cx="550.0" cy="285.0" r="6.05" fill="none" stroke="#e2e8f0" stroke-width="2" opacity="0.7"/>
<circle cx="734.0" cy="253.0" r="7.38" fill="none" stroke="#e2e8f0" stroke-width="2" opacity="0.7"/>
<circle cx="453.0" cy="210.0" r="7.92" fill="none" stroke="#e2e8f0" stroke-width="2" opacity="0.7"/>
<circle cx="777.0" cy="210.0" r="7.99" fill="none" stroke="#e2e8f0" stroke-width="2" opacity="0.7"/>
<circle cx="442.0" cy="241.0" r="7.32" fill="none" stroke="#e2e8f0" stroke-width="2" opacity="0.7"/>
</svg>
