<svg xmlns="http://www.w3.org/2000/svg" viewBox="0 0 1200 420" role="img" aria-label="Unit: Glia">
<title>Unit: Glia</title>
<defs>
  <linearGradient id="ground" x1="0" y1="0" x2="1" y2="1">
    <stop offset="0" stop-color="#0f172a"/>
    <stop offset="1" stop-color="#111c33"/>
  </linearGradient>
  <radialGradient id="mist" cx="0.5" cy="0.5" r="0.5">
    <stop offset="0" stop-color="#27AE60" stop-opacity="0.22"/>
    <stop offset="1" stop-color="#27AE60" stop-opacity="0"/>
  </radialGradient>
  <radialGradient id="mist2" cx="0.5" cy="0.5" r="0.5">
    <stop offset="0" stop-color="#06b6d4" stop-opacity="0.14"/>
    <stop offset="1" stop-color="#06b6d4" stop-opacity="0"/>
  </radialGradient>
</defs>

<rect x="0" y="0" width="1200" height="420" rx="0" fill="url(#ground)" stroke="none" stroke-width="0"/>
<circle cx="1011" cy="88" r="219" fill="url(#mist)"/>
<circle cx="633" cy="284" r="269" fill="url(#mist)"/>
<circle cx="971" cy="169" r="214" fill="url(#mist)"/>
<circle cx="678" cy="64" r="128" fill="url(#mist2)"/>
<circle cx="33" cy="352" r="227" fill="url(#mist2)"/>
<line x1="56" y1="339" x2="99" y2="218" stroke="#e2e8f0" stroke-width="1" stroke-linecap="round" opacity="0.07"/>
<line x1="516" y1="119" x2="575" y2="225" stroke="#e2e8f0" stroke-width="1" stroke-linecap="round" opacity="0.07"/>
<line x1="516" y1="119" x2="331" y2="127" stroke="#e2e8f0" stroke-width="1" stroke-linecap="round" opacity="0.07"/>
<line x1="516" y1="119" x2="397" y2="123" stroke="#e2e8f0" stroke-width="1" stroke-linecap="round" opacity="0.07"/>
<line x1="516" y1="119" x2="684" y2="26" stroke="#e2e8f0" stroke-width="1" stroke-linecap="round" opacity="0.07"/>
<line x1="516" y1="119" x2="277" y2="48" stroke="#e2e8f0" stroke-width="1" stroke-linecap="round" opacity="0.07"/>
<line x1="99" y1="218" x2="222" y2="46" stroke="#e2e8f0" stroke-width="1" stroke-linecap="round" opacity="0.07"/>
<line x1="99" y1="218" x2="132" y2="77" stroke="#e2e8f0" stroke-width="1" stroke-linecap="round" opacity="0.07"/>
<line x1="99" y1="218" x2="331" y2="127" stroke="#e2e8f0" stroke-width="1" stroke-linecap="round" opacity="0.07"/>
<line x1="99" y1="218" x2="277" y2="48" stroke="#e2e8f0" stroke-width="1" stroke-linecap="round" opacity="0.07"/>
<line x1="222" y1="46" x2="132" y2="77" stroke="#e2e8f0" stroke-width="1" stroke-linecap="round" opacity="0.07"/>
<line x1="222" y1="46" x2="331" y2="127" stroke="#e2e8f0" stroke-width="1" stroke-linecap="round" opacity="0.07"/>
<line x1="222" y1="46" x2="397" y2="123" stroke="#e2e8f0" stroke-width="1" stroke-linecap="round" opacity="0.07"/>
<line x1="222" y1="46" x2="277" y2="48" stroke="#e2e8f0" stroke-width="1" stroke-linecap="round" opacity="0.07"/>
<line x1="909" y1="262" x2="998" y2="263" stroke="#e2e8f0" stroke-width="1" stroke-linecap="round" opacity="0.07"/>
<line x1="909" y1="262" x2="1159" y2="308" stroke="#e2e8f0" stroke-width="1" stroke-linecap="round" opacity="0.07"/>
<line x1="909" y1="262" x2="1078" y2="157" stroke="#e2e8f0" stroke-width="1" stroke-linecap="round" opacity="0.07"/>
<line x1="909" y1="262" x2="772" y2="287" stroke="#e2e8f0" stroke-width="1" stroke-linecap="round" opacity="0.07"/>
<line x1="909" y1="262" x2="1068" y2="404" stroke="#e2e8f0" stroke-width="1" stroke-linecap="round" opacity="0.07"/>
<line x1="998" y1="263" x2="1159" y2="308" stroke="#e2e8f0" stroke-width="1" stroke-linecap="round" opacity="0.07"/>
<line x1="998" y1="263" x2="1078" y2="157" stroke="#e2e8f0" stroke-width="1" stroke-linecap="round" opacity="0.07"/>
<line x1="998" y1="263" x2="772" y2="287" stroke="#e2e8f0" stroke-width="1" stroke-linecap="round" opacity="0.07"/>
<line x1="998" y1="263" x2="1068" y2="404" stroke="#e2e8f0" stroke-width="1" stroke-linecap="round" opacity="0.07"/>
<line x1="132" y1="77" x2="331" y2="127" stroke="#e2e8f0" stroke-width="1" stroke-linecap="round" opacity="0.07"/>
<line x1="132" y1="77" x2="277" y2="48" stroke="#e2e8f0" stroke-width="1" stroke-linecap="round" opacity="0.07"/>
<line x1="1159" y1="308" x2="1078" y2="157" stroke="#e2e8f0" stroke-width="1" stroke-linecap="round" opacity="0.07"/>
<line x1="1159" y1="308" x2="1068" y2="404" stroke="#e2e8f0" stroke-width="1" stroke-linecap="round" opacity="0.07"/>
<line x1="1078" y1="157" x2="1068" y2="404" stroke="#e2e8f0" stroke-width="1" stroke-linecap="round" opacity="0.07"/>
<line x1="575" y1="225" x2="397" y2="123" stroke="#e2e8f0" stroke-width="1" stroke-linecap="round" opacity="0.07"/>
<line x1="575" y1="225" x2="772" y2="287" stroke="#e2e8f0" stroke-width="1" stroke-linecap="round" opacity="0.07"/>
<line x1="575" y1="225" x2="684" y2="26" stroke="#e2e8f0" stroke-width="1" stroke-linecap="round" opacity="0.07"/>
<line x1="331" y1="127" x2="397" y2="123" stroke="#e2e8f0" stroke-width="1" stroke-linecap="round" opacity="0.07"/>
<line x1="331" y1="127" x2="277" y2="48" stroke="#e2e8f0" stroke-width="1" stroke-linecap="round" opacity="0.07"/>
<line x1="397" y1="123" x2="277" y2="48" stroke="#e2e8f0" stroke-width="1" stroke-linecap="round" opacity="0.07"/>
<circle cx="56" cy="339" r="2.37" fill="#27AE60" stroke="none" stroke-width="0" opacity="0.28"/>
<circle cx="516" cy="119" r="2.33" fill="#27AE60" stroke="none" stroke-width="0" opacity="0.28"/>
<circle cx="99" cy="218" r="2.73" fill="#27AE60" stroke="none" stroke-width="0" opacity="0.28"/>
<circle cx="222" cy="46" r="2.97" fill="#27AE60" stroke="none" stroke-width="0" opacity="0.28"/>
<circle cx="909" cy="262" r="3.27" fill="#27AE60" stroke="none" stroke-width="0" opacity="0.28"/>
<circle cx="998" cy="263" r="3.33" fill="#27AE60" stroke="none" stroke-width="0" opacity="0.28"/>
<circle cx="132" cy="77" r="2.48" fill="#27AE60" stroke="none" stroke-width="0" opacity="0.28"/>
<circle cx="1159" cy="308" r="2.22" fill="#27AE60" stroke="none" stroke-width="0" opacity="0.28"/>
<circle cx="1078" cy="157" r="3.25" fill="#27AE60" stroke="none" stroke-width="0" opacity="0.28"/>
<circle cx="575" cy="225" r="3.05" fill="#27AE60" stroke="none" stroke-width="0" opacity="0.28"/>
<circle cx="331" cy="127" r="2.62" fill="#27AE60" stroke="none" stroke-width="0" opacity="0.28"/>
<circle cx="397" cy="123" r="3.17" fill="#27AE60" stroke="none" stroke-width="0" opacity="0.28"/>
<circle cx="772" cy="287" r="3.66" fill="#27AE60" stroke="none" stroke-width="0" opacity="0.28"/>
<circle cx="684" cy="26" r="2.59" fill="#27AE60" stroke="none" stroke-width="0" opacity="0.28"/>
<circle cx="277" cy="48" r="2.32" fill="#27AE60" stroke="none" stroke-width="0" opacity="0.28"/>
<circle cx="1068" cy="404" r="3.71" fill="#27AE60" stroke="none" stroke-width="0" opacity="0.28"/>
<circle cx="540.0" cy="190.0" r="34" fill="#27AE60" stroke="none" stroke-width="0" opacity="0.18"/>
<circle cx="540.0" cy="190.0" r="34" fill="none" stroke="#27AE60" stroke-width="3" opacity="0.9"/>
<circle cx="540.0" cy="190.0" r="14.28" fill="#e2e8f0" stroke="none" stroke-width="0" opacity="0.55"/>
<line x1="575.28" y1="197.15" x2="626.25" y2="207.48" stroke="#27AE60" stroke-width="3" stroke-linecap="round" opacity="0.85"/>
<line x1="626.25" y1="207.48" x2="644.87" y2="239.02" stroke="#27AE60" stroke-width="2" stroke-linecap="round" opacity="0.85"/>
<circle cx="644.87" cy="239.02" r="2.4" fill="#e2e8f0" stroke="none" stroke-width="0" opacity="0.6"/>
<line x1="644.87" y1="239.02" x2="670.29" y2="246.5" stroke="#27AE60" stroke-width="1" stroke-linecap="round" opacity="0.85"/>
<circle cx="670.29" cy="246.5" r="2.4" fill="#e2e8f0" stroke="none" stroke-width="0" opacity="0.6"/>
<line x1="644.87" y1="239.02" x2="666.44" y2="258.75" stroke="#27AE60" stroke-width="1" stroke-linecap="round" opacity="0.85"/>
<circle cx="666.44" cy="258.75" r="2.4" fill="#e2e8f0" stroke="none" stroke-width="0" opacity="0.6"/>
<line x1="559.89" y1="220.01" x2="588.62" y2="263.35" stroke="#27AE60" stroke-width="3" stroke-linecap="round" opacity="0.85"/>
<line x1="588.62" y1="263.35" x2="594.03" y2="303.98" stroke="#27AE60" stroke-width="2" stroke-linecap="round" opacity="0.85"/>
<circle cx="594.03" cy="303.98" r="2.4" fill="#e2e8f0" stroke="none" stroke-width="0" opacity="0.6"/>
<line x1="594.03" y1="303.98" x2="577.58" y2="327.13" stroke="#27AE60" stroke-width="1" stroke-linecap="round" opacity="0.85"/>
<circle cx="577.58" cy="327.13" r="2.4" fill="#e2e8f0" stroke="none" stroke-width="0" opacity="0.6"/>
<line x1="588.62" y1="263.35" x2="623.7" y2="279.13" stroke="#27AE60" stroke-width="2" stroke-linecap="round" opacity="0.85"/>
<circle cx="623.7" cy="279.13" r="2.4" fill="#e2e8f0" stroke="none" stroke-width="0" opacity="0.6"/>
<line x1="623.7" y1="279.13" x2="636.49" y2="303.05" stroke="#27AE60" stroke-width="1" stroke-linecap="round" opacity="0.85"/>
<circle cx="636.49" cy="303.05" r="2.4" fill="#e2e8f0" stroke="none" stroke-width="0" opacity="0.6"/>
<line x1="623.7" y1="279.13" x2="653.02" y2="279.33" stroke="#27AE60" stroke-width="1" stroke-linecap="round" opacity="0.85"/>
<circle cx="653.02" cy="279.33" r="2.4" fill="#e2e8f0" stroke="none" stroke-width="0" opacity="0.6"/>
<line x1="532.85" y1="225.28" x2="522.52" y2="276.25" stroke="#27AE60" stroke-width="3" stroke-linecap="round" opacity="0.85"/>
<line x1="522.52" y1="276.25" x2="494.82" y2="301.27" stroke="#27AE60" stroke-width="2" stroke-linecap="round" opacity="0.85"/>
<circle cx="494.82" cy="301.27" r="2.4" fill="#e2e8f0" stroke="none" stroke-width="0" opacity="0.6"/>
<line x1="494.82" y1="301.27" x2="492.88" y2="328.45" stroke="#27AE60" stroke-width="1" stroke-linecap="round" opacity="0.85"/>
<circle cx="492.88" cy="328.45" r="2.4" fill="#e2e8f0" stroke="none" stroke-width="0" opacity="0.6"/>
<line x1="494.82" y1="301.27" x2="490.96" y2="329.53" stroke="#27AE60" stroke-width="1" stroke-linecap="round" opacity="0.85"/>
<circle cx="490.96" cy="329.53" r="2.4" fill="#e2e8f0" stroke="none" stroke-width="0" opacity="0.6"/>
<line x1="522.52" y1="276.25" x2="497.52" y2="301.13" stroke="#27AE60" stroke-width="2" stroke-linecap="round" opacity="0.85"/>
<circle cx="497.52" cy="301.13" r="2.4" fill="#e2e8f0" stroke="none" stroke-width="0" opacity="0.6"/>
<line x1="497.52" y1="301.13" x2="484.82" y2="325.36" stroke="#27AE60" stroke-width="1" stroke-linecap="round" opacity="0.85"/>
<circle cx="484.82" cy="325.36" r="2.4" fill="#e2e8f0" stroke="none" stroke-width="0" opacity="0.6"/>
<line x1="509.99" y1="209.89" x2="466.65" y2="238.62" stroke="#27AE60" stroke-width="3" stroke-linecap="round" opacity="0.85"/>
<line x1="466.65" y1="238.62" x2="428.76" y2="237.64" stroke="#27AE60" stroke-width="2" stroke-linecap="round" opacity="0.85"/>
<circle cx="428.76" cy="237.64" r="2.4" fill="#e2e8f0" stroke="none" stroke-width="0" opacity="0.6"/>
<line x1="428.76" y1="237.64" x2="405.65" y2="224.33" stroke="#27AE60" stroke-width="1" stroke-linecap="round" opacity="0.85"/>
<circle cx="405.65" cy="224.33" r="2.4" fill="#e2e8f0" stroke="none" stroke-width="0" opacity="0.6"/>
<line x1="428.76" y1="237.64" x2="404.74" y2="230.02" stroke="#27AE60" stroke-width="1" stroke-linecap="round" opacity="0.85"/>
<circle cx="404.74" cy="230.02" r="2.4" fill="#e2e8f0" stroke="none" stroke-width="0" opacity="0.6"/>
<line x1="466.65" y1="238.62" x2="428.8" y2="246.7" stroke="#27AE60" stroke-width="2" stroke-linecap="round" opacity="0.85"/>
<circle cx="428.8" cy="246.7" r="2.4" fill="#e2e8f0" stroke="none" stroke-width="0" opacity="0.6"/>
<line x1="428.8" y1="246.7" x2="403.39" y2="241.25" stroke="#27AE60" stroke-width="1" stroke-linecap="round" opacity="0.85"/>
<circle cx="403.39" cy="241.25" r="2.4" fill="#e2e8f0" stroke="none" stroke-width="0" opacity="0.6"/>
<line x1="428.8" y1="246.7" x2="400.56" y2="240.17" stroke="#27AE60" stroke-width="1" stroke-linecap="round" opacity="0.85"/>
<circle cx="400.56" cy="240.17" r="2.4" fill="#e2e8f0" stroke="none" stroke-width="0" opacity="0.6"/>
<line x1="504.72" y1="182.85" x2="453.75" y2="172.52" stroke="#27AE60" stroke-width="3" stroke-linecap="round" opacity="0.85"/>
<line x1="453.75" y1="172.52" x2="430.67" y2="144.72" stroke="#27AE60" stroke-width="2" stroke-linecap="round" opacity="0.85"/>
<circle cx="430.67" cy="144.72" r="2.4" fill="#e2e8f0" stroke="none" stroke-width="0" opacity="0.6"/>
<line x1="430.67" y1="144.72" x2="431.3" y2="120.31" stroke="#27AE60" stroke-width="1" stroke-linecap="round" opacity="0.85"/>
<circle cx="431.3" cy="120.31" r="2.4" fill="#e2e8f0" stroke="none" stroke-width="0" opacity="0.6"/>
<line x1="453.75" y1="172.52" x2="419.85" y2="156.71" stroke="#27AE60" stroke-width="2" stroke-linecap="round" opacity="0.85"/>
<circle cx="419.85" cy="156.71" r="2.4" fill="#e2e8f0" stroke="none" stroke-width="0" opacity="0.6"/>
<line x1="419.85" y1="156.71" x2="400.29" y2="135.38" stroke="#27AE60" stroke-width="1" stroke-linecap="round" opacity="0.85"/>
<circle cx="400.29" cy="135.38" r="2.4" fill="#e2e8f0" stroke="none" stroke-width="0" opacity="0.6"/>
<line x1="520.11" y1="159.99" x2="491.38" y2="116.65" stroke="#27AE60" stroke-width="3" stroke-linecap="round" opacity="0.85"/>
<line x1="491.38" y1="116.65" x2="485.65" y2="77.81" stroke="#27AE60" stroke-width="2" stroke-linecap="round" opacity="0.85"/>
<circle cx="485.65" cy="77.81" r="2.4" fill="#e2e8f0" stroke="none" stroke-width="0" opacity="0.6"/>
<line x1="485.65" y1="77.81" x2="493.09" y2="47.66" stroke="#27AE60" stroke-width="1" stroke-linecap="round" opacity="0.85"/>
<circle cx="493.09" cy="47.66" r="2.4" fill="#e2e8f0" stroke="none" stroke-width="0" opacity="0.6"/>
<line x1="485.65" y1="77.81" x2="497.8" y2="53.55" stroke="#27AE60" stroke-width="1" stroke-linecap="round" opacity="0.85"/>
<circle cx="497.8" cy="53.55" r="2.4" fill="#e2e8f0" stroke="none" stroke-width="0" opacity="0.6"/>
<line x1="491.38" y1="116.65" x2="492.87" y2="80.29" stroke="#27AE60" stroke-width="2" stroke-linecap="round" opacity="0.85"/>
<circle cx="492.87" cy="80.29" r="2.4" fill="#e2e8f0" stroke="none" stroke-width="0" opacity="0.6"/>
<line x1="492.87" y1="80.29" x2="510.92" y2="64.24" stroke="#27AE60" stroke-width="1" stroke-linecap="round" opacity="0.85"/>
<circle cx="510.92" cy="64.24" r="2.4" fill="#e2e8f0" stroke="none" stroke-width="0" opacity="0.6"/>
<line x1="492.87" y1="80.29" x2="483.14" y2="56.59" stroke="#27AE60" stroke-width="1" stroke-linecap="round" opacity="0.85"/>
<circle cx="483.14" cy="56.59" r="2.4" fill="#e2e8f0" stroke="none" stroke-width="0" opacity="0.6"/>
<line x1="547.15" y1="154.72" x2="557.48" y2="103.75" stroke="#27AE60" stroke-width="3" stroke-linecap="round" opacity="0.85"/>
<line x1="557.48" y1="103.75" x2="537.92" y2="74.58" stroke="#27AE60" stroke-width="2" stroke-linecap="round" opacity="0.85"/>
<circle cx="537.92" cy="74.58" r="2.4" fill="#e2e8f0" stroke="none" stroke-width="0" opacity="0.6"/>
<line x1="537.92" y1="74.58" x2="540.01" y2="47.74" stroke="#27AE60" stroke-width="1" stroke-linecap="round" opacity="0.85"/>
<circle cx="540.01" cy="47.74" r="2.4" fill="#e2e8f0" stroke="none" stroke-width="0" opacity="0.6"/>
<line x1="557.48" y1="103.75" x2="539.06" y2="71.04" stroke="#27AE60" stroke-width="2" stroke-linecap="round" opacity="0.85"/>
<circle cx="539.06" cy="71.04" r="2.4" fill="#e2e8f0" stroke="none" stroke-width="0" opacity="0.6"/>
<line x1="539.06" y1="71.04" x2="545.37" y2="44.4" stroke="#27AE60" stroke-width="1" stroke-linecap="round" opacity="0.85"/>
<circle cx="545.37" cy="44.4" r="2.4" fill="#e2e8f0" stroke="none" stroke-width="0" opacity="0.6"/>
<line x1="570.01" y1="170.11" x2="613.35" y2="141.38" stroke="#27AE60" stroke-width="3" stroke-linecap="round" opacity="0.85"/>
<line x1="613.35" y1="141.38" x2="648.3" y2="140.8" stroke="#27AE60" stroke-width="2" stroke-linecap="round" opacity="0.85"/>
<circle cx="648.3" cy="140.8" r="2.4" fill="#e2e8f0" stroke="none" stroke-width="0" opacity="0.6"/>
<line x1="648.3" y1="140.8" x2="671.86" y2="151.17" stroke="#27AE60" stroke-width="1" stroke-linecap="round" opacity="0.85"/>
<circle cx="671.86" cy="151.17" r="2.4" fill="#e2e8f0" stroke="none" stroke-width="0" opacity="0.6"/>
<line x1="720.0" y1="60.0" x2="800.0" y2="360.0" stroke="#e2e8f0" stroke-width="26" stroke-linecap="butt" opacity="0.25"/>
<line x1="720.0" y1="60.0" x2="800.0" y2="360.0" stroke="#e2e8f0" stroke-width="26" stroke-linecap="butt" opacity="0.0"/>
<line x1="713.0" y1="60.0" x2="793.0" y2="360.0" stroke="#e2e8f0" stroke-width="3" stroke-linecap="round" opacity="0.7"/>
<line x1="733.0" y1="60.0" x2="813.0" y2="360.0" stroke="#e2e8f0" stroke-width="3" stroke-linecap="round" opacity="0.7"/>
<path d="M 626.0 204.0 C 690.0 190.0, 718.0 184.0, 742.0 208.0
            C 750.0 226.0, 720.0 240.0, 704.0 226.0" fill="none" stroke="#27AE60" stroke-width="4" stroke-linecap="round" stroke-linejoin="round" opacity="0.95"/>
<circle cx="568.0" cy="196.0" r="3" fill="#27AE60" stroke="none" stroke-width="0" opacity="0.8"/>
<circle cx="563.0" cy="199.0" r="3" fill="#27AE60" stroke="none" stroke-width="0" opacity="0.8"/>
<circle cx="536.0" cy="171.0" r="3" fill="#27AE60" stroke="none" stroke-width="0" opacity="0.8"/>
<circle cx="548.0" cy="180.0" r="3" fill="#27AE60" stroke="none" stroke-width="0" opacity="0.8"/>
<circle cx="554.0" cy="209.0" r="3" fill="#27AE60" stroke="none" stroke-width="0" opacity="0.8"/>
</svg>
