<svg xmlns="http://www.w3.org/2000/svg" viewBox="0 0 1200 420" role="img" aria-label="H01 Human Cortex Fragment">
<title>H01 Human Cortex Fragment</title>
<defs>
  <linearGradient id="ground" x1="0" y1="0" x2="1" y2="1">
    <stop offset="0" stop-color="#0f172a"/>
    <stop offset="1" stop-color="#111c33"/>
  </linearGradient>
  <radialGradient id="mist" cx="0.5" cy="0.5" r="0.5">
    <stop offset="0" stop-color="#1ABC9C" stop-opacity="0.22"/>
    <stop offset="1" stop-color="#1ABC9C" stop-opacity="0"/>
  </radialGradient>
  <radialGradient id="mist2" cx="0.5" cy="0.5" r="0.5">
    <stop offset="0" stop-color="#06b6d4" stop-opacity="0.14"/>
    <stop offset="1" stop-color="#06b6d4" stop-opacity="0"/>
  </radialGradient>
</defs>

<rect x="0" y="0" width="1200" height="420" rx="0" fill="url(#ground)" stroke="none" stroke-width="0"/>
<circle cx="1026" cy="21" r="143" fill="url(#mist)"/>
<circle cx="803" cy="37" r="274" fill="url(#mist)"/>
<circle cx="712" cy="226" r="276" fill="url(#mist)"/>
<circle cx="518" cy="357" r="183" fill="url(#mist2)"/>
<circle cx="486" cy="257" r="209" fill="url(#mist2)"/>
<line x1="731" y1="67" x2="684" y2="237" stroke="#e2e8f0" stroke-width="1" stroke-linecap="round" opacity="0.07"/>
<line x1="731" y1="67" x2="699" y2="223" stroke="#e2e8f0" stroke-width="1" stroke-linecap="round" opacity="0.07"/>
<line x1="731" y1="67" x2="699" y2="309" stroke="#e2e8f0" stroke-width="1" stroke-linecap="round" opacity="0.07"/>
<line x1="731" y1="67" x2="971" y2="162" stroke="#e2e8f0" stroke-width="1" stroke-linecap="round" opacity="0.07"/>
<line x1="731" y1="67" x2="585" y2="81" stroke="#e2e8f0" stroke-width="1" stroke-linecap="round" opacity="0.07"/>
<line x1="803" y1="393" x2="943" y2="287" stroke="#e2e8f0" stroke-width="1" stroke-linecap="round" opacity="0.07"/>
<line x1="803" y1="393" x2="684" y2="237" stroke="#e2e8f0" stroke-width="1" stroke-linecap="round" opacity="0.07"/>
<line x1="803" y1="393" x2="699" y2="223" stroke="#e2e8f0" stroke-width="1" stroke-linecap="round" opacity="0.07"/>
<line x1="803" y1="393" x2="699" y2="309" stroke="#e2e8f0" stroke-width="1" stroke-linecap="round" opacity="0.07"/>
<line x1="803" y1="393" x2="741" y2="328" stroke="#e2e8f0" stroke-width="1" stroke-linecap="round" opacity="0.07"/>
<line x1="803" y1="393" x2="983" y2="345" stroke="#e2e8f0" stroke-width="1" stroke-linecap="round" opacity="0.07"/>
<line x1="943" y1="287" x2="699" y2="223" stroke="#e2e8f0" stroke-width="1" stroke-linecap="round" opacity="0.07"/>
<line x1="943" y1="287" x2="699" y2="309" stroke="#e2e8f0" stroke-width="1" stroke-linecap="round" opacity="0.07"/>
<line x1="943" y1="287" x2="971" y2="162" stroke="#e2e8f0" stroke-width="1" stroke-linecap="round" opacity="0.07"/>
<line x1="943" y1="287" x2="741" y2="328" stroke="#e2e8f0" stroke-width="1" stroke-linecap="round" opacity="0.07"/>
<line x1="943" y1="287" x2="983" y2="345" stroke="#e2e8f0" stroke-width="1" stroke-linecap="round" opacity="0.07"/>
<line x1="684" y1="237" x2="699" y2="223" stroke="#e2e8f0" stroke-width="1" stroke-linecap="round" opacity="0.07"/>
<line x1="684" y1="237" x2="699" y2="309" stroke="#e2e8f0" stroke-width="1" stroke-linecap="round" opacity="0.07"/>
<line x1="684" y1="237" x2="741" y2="328" stroke="#e2e8f0" stroke-width="1" stroke-linecap="round" opacity="0.07"/>
<line x1="684" y1="237" x2="585" y2="81" stroke="#e2e8f0" stroke-width="1" stroke-linecap="round" opacity="0.07"/>
<line x1="684" y1="237" x2="440" y2="192" stroke="#e2e8f0" stroke-width="1" stroke-linecap="round" opacity="0.07"/>
<line x1="1125" y1="59" x2="971" y2="162" stroke="#e2e8f0" stroke-width="1" stroke-linecap="round" opacity="0.07"/>
<line x1="699" y1="223" x2="699" y2="309" stroke="#e2e8f0" stroke-width="1" stroke-linecap="round" opacity="0.07"/>
<line x1="699" y1="223" x2="741" y2="328" stroke="#e2e8f0" stroke-width="1" stroke-linecap="round" opacity="0.07"/>
<line x1="699" y1="223" x2="585" y2="81" stroke="#e2e8f0" stroke-width="1" stroke-linecap="round" opacity="0.07"/>
<line x1="368" y1="78" x2="435" y2="116" stroke="#e2e8f0" stroke-width="1" stroke-linecap="round" opacity="0.07"/>
<line x1="368" y1="78" x2="585" y2="81" stroke="#e2e8f0" stroke-width="1" stroke-linecap="round" opacity="0.07"/>
<line x1="368" y1="78" x2="440" y2="192" stroke="#e2e8f0" stroke-width="1" stroke-linecap="round" opacity="0.07"/>
<line x1="699" y1="309" x2="741" y2="328" stroke="#e2e8f0" stroke-width="1" stroke-linecap="round" opacity="0.07"/>
<line x1="699" y1="309" x2="585" y2="81" stroke="#e2e8f0" stroke-width="1" stroke-linecap="round" opacity="0.07"/>
<line x1="971" y1="162" x2="983" y2="345" stroke="#e2e8f0" stroke-width="1" stroke-linecap="round" opacity="0.07"/>
<line x1="103" y1="293" x2="216" y2="313" stroke="#e2e8f0" stroke-width="1" stroke-linecap="round" opacity="0.07"/>
<line x1="435" y1="116" x2="585" y2="81" stroke="#e2e8f0" stroke-width="1" stroke-linecap="round" opacity="0.07"/>
<line x1="435" y1="116" x2="440" y2="192" stroke="#e2e8f0" stroke-width="1" stroke-linecap="round" opacity="0.07"/>
<line x1="741" y1="328" x2="983" y2="345" stroke="#e2e8f0" stroke-width="1" stroke-linecap="round" opacity="0.07"/>
<line x1="585" y1="81" x2="440" y2="192" stroke="#e2e8f0" stroke-width="1" stroke-linecap="round" opacity="0.07"/>
<line x1="440" y1="192" x2="216" y2="313" stroke="#e2e8f0" stroke-width="1" stroke-linecap="round" opacity="0.07"/>
<circle cx="731" cy="67" r="3.22" fill="#1ABC9C" stroke="none" stroke-width="0" opacity="0.28"/>
<circle cx="803" cy="393" r="3.73" fill="#1ABC9C" stroke="none" stroke-width="0" opacity="0.28"/>
<circle cx="943" cy="287" r="2.31" fill="#1ABC9C" stroke="none" stroke-width="0" opacity="0.28"/>
<circle cx="684" cy="237" r="3.62" fill="#1ABC9C" stroke="none" stroke-width="0" opacity="0.28"/>
<circle cx="1125" cy="59" r="3.44" fill="#1ABC9C" stroke="none" stroke-width="0" opacity="0.28"/>
<circle cx="699" cy="223" r="2.43" fill="#1ABC9C" stroke="none" stroke-width="0" opacity="0.28"/>
<circle cx="368" cy="78" r="3.7" fill="#1ABC9C" stroke="none" stroke-width="0" opacity="0.28"/>
<circle cx="699" cy="309" r="2.64" fill="#1ABC9C" stroke="none" stroke-width="0" opacity="0.28"/>
<circle cx="971" cy="162" r="3.09" fill="#1ABC9C" stroke="none" stroke-width="0" opacity="0.28"/>
<circle cx="103" cy="293" r="3.4" fill="#1ABC9C" stroke="none" stroke-width="0" opacity="0.28"/>
<circle cx="435" cy="116" r="2.6" fill="#1ABC9C" stroke="none" stroke-width="0" opacity="0.28"/>
<circle cx="741" cy="328" r="2.78" fill="#1ABC9C" stroke="none" stroke-width="0" opacity="0.28"/>
<circle cx="585" cy="81" r="3.54" fill="#1ABC9C" stroke="none" stroke-width="0" opacity="0.28"/>
<circle cx="983" cy="345" r="2.63" fill="#1ABC9C" stroke="none" stroke-width="0" opacity="0.28"/>
<circle cx="440" cy="192" r="2.24" fill="#1ABC9C" stroke="none" stroke-width="0" opacity="0.28"/>
<circle cx="216" cy="313" r="3.31" fill="#1ABC9C" stroke="none" stroke-width="0" opacity="0.28"/>
<circle cx="520.0" cy="210.0" r="110" fill="none" stroke="#1ABC9C" stroke-width="4" opacity="0.9"/>
<circle cx="520.0" cy="210.0" r="110" fill="#1ABC9C" stroke="none" stroke-width="0" opacity="0.08"/>
<circle cx="448.01" cy="211.09" r="6" fill="#e2e8f0" stroke="none" stroke-width="0" opacity="0.85"/>
<circle cx="586.3" cy="240.55" r="6" fill="#e2e8f0" stroke="none" stroke-width="0" opacity="0.85"/>
<circle cx="499.52" cy="245.52" r="6" fill="#e2e8f0" stroke="none" stroke-width="0" opacity="0.85"/>
<circle cx="451.07" cy="206.98" r="6" fill="#e2e8f0" stroke="none" stroke-width="0" opacity="0.85"/>
<circle cx="488.43" cy="167.43" r="6" fill="#e2e8f0" stroke="none" stroke-width="0" opacity="0.85"/>
<circle cx="530.0" cy="217.0" r="12" fill="none" stroke="#06b6d4" stroke-width="3" opacity="0.95"/>
<line x1="690.0" y1="156.0" x2="865.0" y2="156.0" stroke="#1ABC9C" stroke-width="7" stroke-linecap="round" opacity="0.9"/>
<line x1="690.0" y1="192.0" x2="753.0" y2="192.0" stroke="#e2e8f0" stroke-width="7" stroke-linecap="round" opacity="0.45"/>
<line x1="690.0" y1="228.0" x2="867.0" y2="228.0" stroke="#e2e8f0" stroke-width="7" stroke-linecap="round" opacity="0.45"/>
<line x1="690.0" y1="264.0" x2="786.0" y2="264.0" stroke="#e2e8f0" stroke-width="7" stroke-linecap="round" opacity="0.45"/>
</svg>
